<?xml version="1.0" encoding="UTF-8" standalone="no"?>
<!-- Created with Inkscape (http://www.inkscape.org/) -->

<svg
   width="128"
   height="128"
   viewBox="0 0 128 128"
   version="1.1"
   id="svg5"
   xml:space="preserve"
   inkscape:version="1.2.2 (732a01da63, 2022-12-09)"
   sodipodi:docname="wheel.svg"
   xmlns:inkscape="http://www.inkscape.org/namespaces/inkscape"
   xmlns:sodipodi="http://sodipodi.sourceforge.net/DTD/sodipodi-0.dtd"
   xmlns="http://www.w3.org/2000/svg"
   xmlns:svg="http://www.w3.org/2000/svg"><sodipodi:namedview
     id="namedview7"
     pagecolor="#ffffff"
     bordercolor="#000000"
     borderopacity="0.25"
     inkscape:showpageshadow="2"
     inkscape:pageopacity="0.0"
     inkscape:pagecheckerboard="true"
     inkscape:deskcolor="#d1d1d1"
     inkscape:document-units="px"
     showgrid="false"
     inkscape:zoom="1.8707912"
     inkscape:cx="104.7685"
     inkscape:cy="71.627447"
     inkscape:window-width="1366"
     inkscape:window-height="705"
     inkscape:window-x="-8"
     inkscape:window-y="-8"
     inkscape:window-maximized="1"
     inkscape:current-layer="layer1" /><defs
     id="defs2" /><g
     inkscape:label="Layer 1"
     inkscape:groupmode="layer"
     id="layer1"><path
       style="fill:#000000;stroke-width:0.481737"
       d="M 58.368073,119.39166 C 49.89092,118.15754 45.841676,117.04595 39.912668,114.32531 29.729689,109.65265 19.818134,100.51397 14.370297,90.774636 c -9.3389933,-16.695709 -9.3389933,-38.222358 0,-54.918066 3.815794,-6.821655 11.461429,-15.035325 18.075441,-19.418362 6.10789,-4.047636 13.715281,-7.1051787 21.345829,-8.5792593 4.036247,-0.7797282 15.71499,-0.7797282 19.751237,0 7.630548,1.4740806 15.237938,4.5316233 21.34583,8.5792593 6.614006,4.383037 14.259646,12.596707 18.075436,19.418362 9.339,16.695708 9.339,38.222357 0,54.918066 -3.81579,6.821652 -11.46143,15.035324 -18.075436,19.418364 -6.068384,4.02145 -13.875566,7.1678 -21.104962,8.50543 -3.151598,0.58313 -13.09914,1.03047 -15.415599,0.69323 z M 70.70971,108.37234 c 5.620947,-0.98612 9.095681,-2.08879 9.095681,-2.88641 0,-2.26815 -5.057661,-5.590343 -9.863031,-6.478663 -8.463207,-1.564504 -17.519168,0.19708 -20.918934,4.069203 -2.114625,2.40843 -1.937615,2.95802 1.251265,3.88505 7.29496,2.1207 13.820648,2.57123 20.435019,1.41082 z M 35.986478,96.304687 c 3.572089,-1.847198 4.724988,-9.006143 2.403396,-14.923931 -1.445733,-3.685205 -6.030281,-8.429249 -8.98194,-9.29442 -4.33417,-1.270404 -8.545162,-0.302329 -9.148929,2.10327 -0.936908,3.73294 3.521058,13.051987 9.339463,19.523455 2.992696,3.328598 4.096717,3.776503 6.38801,2.591626 z m 60.374808,-1.108338 c 4.020534,-3.756381 10.089794,-13.933325 10.737484,-18.004642 0.618,-3.884663 -1.12098,-5.690716 -5.47084,-5.681862 -4.958727,0.01007 -10.517563,4.38121 -12.735815,10.014647 -1.512872,3.842058 -1.530831,9.187855 -0.04032,12.006139 1.917407,3.625489 4.741448,4.251906 7.509502,1.665718 z M 30.668169,57.79019 c 21.554254,-11.719404 44.378402,-11.722062 65.998033,-0.0077 5.027588,2.724148 6.137438,2.975861 8.395858,1.904169 2.63783,-1.251732 3.30923,-2.944216 2.90007,-7.310597 -0.28377,-3.028221 -0.56516,-3.876787 -1.72278,-5.195239 -0.76098,-0.866691 -1.38361,-2.133153 -1.38361,-2.814336 0,-1.944742 -0.97562,-3.604532 -2.72566,-4.637082 -1.00634,-0.593752 -1.60998,-1.326214 -1.60998,-1.953554 0,-2.066899 -1.36756,-3.785473 -3.495399,-4.392574 -2.592966,-0.739807 -3.650953,-1.646553 -4.554693,-3.903588 -1.027815,-2.566924 -3.511394,-4.533876 -9.041797,-7.160965 -13.020169,-6.184921 -26.528685,-6.184106 -39.512262,0.0024 -5.674337,2.703739 -7.778452,4.356921 -8.967982,7.046051 -1.084155,2.450913 -2.033541,3.27295 -4.638295,4.01612 -2.127844,0.607122 -3.495403,2.325696 -3.495403,4.392595 0,0.62734 -0.603642,1.359802 -1.609976,1.953554 -1.750043,1.03255 -2.725661,2.69234 -2.725661,4.637082 0,0.681183 -0.622624,1.947645 -1.38361,2.81436 -1.157618,1.318452 -1.439008,2.167018 -1.722776,5.195239 -0.401159,4.280969 0.246442,6.011071 2.720076,7.266831 2.172785,1.103034 3.777108,0.756434 8.575847,-1.852719 z"
       id="path2308" /></g></svg>
